<?xml version="1.0" encoding="UTF-8"?>
<!DOCTYPE svg PUBLIC "-//W3C//DTD SVG 1.1//EN" "http://www.w3.org/Graphics/SVG/1.1/DTD/svg11.dtd">
<!-- Creator: CorelDRAW 2021.5 -->
<svg xmlns="http://www.w3.org/2000/svg" xml:space="preserve" width="7.9587mm" height="2.7093mm" version="1.1" style="shape-rendering:geometricPrecision; text-rendering:geometricPrecision; image-rendering:optimizeQuality; fill-rule:evenodd; clip-rule:evenodd"
viewBox="0 0 49.09 16.71"
 xmlns:xlink="http://www.w3.org/1999/xlink"
 xmlns:xodm="http://www.corel.com/coreldraw/odm/2003">
 <defs>
  <style type="text/css">
   <![CDATA[
    .str0 {stroke:#8A4EFF;stroke-width:1.57;stroke-miterlimit:22.9256}
    .fil0 {fill:none}
    .fil1 {fill:#8A4EFF}
    .fil2 {fill:#8A4EFF;fill-rule:nonzero}
   ]]>
  </style>
 </defs>
 <g id="Layer_x0020_1">
  <metadata id="CorelCorpID_0Corel-Layer"/>
  <rect class="fil0 str0" x="0.78" y="0.78" width="47.52" height="15.14" rx="1.34" ry="1.85"/>
  <circle class="fil1" cx="7.54" cy="8.36" r="3.2"/>
  <polygon class="fil2" points="16.48,11.55 18.68,8.22 16.68,5.16 18.19,5.16 19.45,7.06 20.71,5.16 22.22,5.16 20.22,8.22 22.42,11.55 20.87,11.55 19.45,9.39 18.03,11.55 "/>
  <polygon id="_1" class="fil2" points="22.43,11.55 24.64,8.22 22.64,5.16 24.15,5.16 25.41,7.06 26.67,5.16 28.18,5.16 26.17,8.22 28.38,11.55 26.82,11.55 25.41,9.39 23.99,11.55 "/>
  <polygon id="_2" class="fil2" points="28.89,9.85 28.89,8.62 31.3,8.62 31.3,9.85 "/>
  <polygon id="_3" class="fil2" points="31.37,11.55 33.58,8.22 31.57,5.16 33.08,5.16 34.34,7.06 35.6,5.16 37.11,5.16 35.11,8.22 37.31,11.55 35.76,11.55 34.34,9.39 32.92,11.55 "/>
  <polygon id="_4" class="fil2" points="37.33,11.55 39.53,8.22 37.53,5.16 39.04,5.16 40.3,7.06 41.56,5.16 43.07,5.16 41.06,8.22 43.27,11.55 41.72,11.55 40.3,9.39 38.88,11.55 "/>
 </g>
</svg>
